<svg width="208" height="134" viewBox="0 0 208 134" fill="none" xmlns="http://www.w3.org/2000/svg">
<g filter="url(#filter0_d_1_151)">
<path d="M40.6958 23.6419V47.4583H35.8045V23.6419H40.6958ZM48.0247 23.6419V27.4859H28.5902V23.6419H48.0247ZM51.4922 23.6419H60.3752C62.1965 23.6419 63.7615 23.9145 65.0702 24.4598C66.3898 25.0051 67.4042 25.812 68.113 26.8807C68.8219 27.9493 69.1763 29.2634 69.1763 30.8228C69.1763 32.0987 68.9583 33.1946 68.522 34.1107C68.0967 35.0158 67.4914 35.7737 66.7062 36.3844C65.9318 36.9842 65.0212 37.4639 63.9743 37.8239L62.4201 38.6417H54.6986L54.6659 34.8141H60.408C61.2696 34.8141 61.9839 34.6613 62.5509 34.3561C63.1181 34.0507 63.5435 33.6254 63.827 33.0801C64.1214 32.5349 64.2687 31.9025 64.2687 31.1827C64.2687 30.4194 64.1268 29.7596 63.8433 29.2035C63.5598 28.6473 63.129 28.2221 62.5509 27.9276C61.973 27.6332 61.2476 27.4859 60.3752 27.4859H56.4V47.4583H51.4922V23.6419ZM64.8085 47.4583L59.3773 36.8423L64.5631 36.8097L70.0597 47.2293V47.4583H64.8085ZM89.6082 43.6307V47.4583H76.9299V43.6307H89.6082ZM78.5331 23.6419V47.4583H73.6253V23.6419H78.5331ZM87.956 33.3419V37.0714H76.9299V33.3419H87.956ZM89.5918 23.6419V27.4859H76.9299V23.6419H89.5918ZM102.466 37.0059H96.3474L96.3148 33.6364H101.452C102.357 33.6364 103.098 33.5218 103.676 33.2929C104.254 33.0529 104.685 32.7094 104.969 32.2623C105.263 31.8044 105.41 31.2481 105.41 30.5939C105.41 29.8523 105.269 29.2525 104.985 28.7945C104.712 28.3365 104.282 28.0039 103.693 27.7968C103.115 27.5895 102.368 27.4859 101.452 27.4859H98.0488V47.4583H93.141V23.6419H101.452C102.837 23.6419 104.074 23.7727 105.165 24.0346C106.267 24.2962 107.199 24.6943 107.962 25.2286C108.726 25.7629 109.309 26.4391 109.713 27.2569C110.116 28.0639 110.318 29.0236 110.318 30.1358C110.318 31.1173 110.095 32.0224 109.647 32.8512C109.211 33.6799 108.519 34.3561 107.57 34.8795C106.632 35.403 105.405 35.6919 103.889 35.7465L102.466 37.0059ZM102.253 47.4583H95.006L96.9201 43.6307H102.253C103.115 43.6307 103.818 43.4945 104.363 43.2217C104.909 42.9382 105.312 42.5566 105.574 42.0767C105.836 41.597 105.967 41.0462 105.967 40.4246C105.967 39.7267 105.847 39.1215 105.607 38.609C105.378 38.0965 105.007 37.7038 104.494 37.4312C103.982 37.1477 103.306 37.0059 102.466 37.0059H97.738L97.7708 33.6364H103.66L104.789 34.9613C106.239 34.9394 107.406 35.1957 108.29 35.7301C109.184 36.2536 109.833 36.935 110.236 37.7748C110.651 38.6145 110.858 39.5141 110.858 40.4737C110.858 42.0004 110.525 43.2872 109.86 44.3341C109.195 45.37 108.219 46.1498 106.932 46.6732C105.656 47.1966 104.096 47.4583 102.253 47.4583ZM128.361 23.6419H133.253V39.3777C133.253 41.2098 132.86 42.7529 132.075 44.0069C131.301 45.261 130.226 46.2043 128.852 46.8368C127.489 47.4692 125.918 47.7855 124.141 47.7855C122.363 47.7855 120.782 47.4692 119.397 46.8368C118.023 46.2043 116.943 45.261 116.158 44.0069C115.383 42.7529 114.996 41.2098 114.996 39.3777V23.6419H119.904V39.3777C119.904 40.4465 120.073 41.3189 120.411 41.9949C120.749 42.6711 121.234 43.1673 121.867 43.4834C122.51 43.7997 123.268 43.9579 124.141 43.9579C125.035 43.9579 125.793 43.7997 126.415 43.4834C127.047 43.1673 127.527 42.6711 127.854 41.9949C128.192 41.3189 128.361 40.4465 128.361 39.3777V23.6419ZM150.364 41.2262C150.364 40.8009 150.299 40.4192 150.168 40.0811C150.048 39.7321 149.819 39.416 149.481 39.1325C149.143 38.838 148.668 38.549 148.057 38.2655C147.447 37.9819 146.655 37.6875 145.685 37.3821C144.606 37.0331 143.58 36.6406 142.61 36.2044C141.649 35.7682 140.799 35.2611 140.058 34.6833C139.327 34.0944 138.749 33.4128 138.324 32.6385C137.909 31.8642 137.702 30.9646 137.702 29.9395C137.702 28.9472 137.92 28.0476 138.356 27.2405C138.792 26.4227 139.403 25.7248 140.188 25.1468C140.974 24.558 141.901 24.1054 142.97 23.7892C144.049 23.4729 145.233 23.3148 146.52 23.3148C148.275 23.3148 149.807 23.6311 151.117 24.2635C152.425 24.896 153.44 25.7629 154.159 26.8644C154.89 27.9658 155.255 29.2253 155.255 30.6429H150.38C150.38 29.945 150.233 29.3343 149.939 28.8109C149.655 28.2765 149.218 27.8567 148.629 27.5514C148.051 27.246 147.321 27.0934 146.438 27.0934C145.587 27.0934 144.878 27.2242 144.312 27.4859C143.743 27.7368 143.319 28.0803 143.036 28.5165C142.751 28.9418 142.61 29.4215 142.61 29.9559C142.61 30.3594 142.708 30.7247 142.904 31.0519C143.111 31.379 143.417 31.6843 143.82 31.9678C144.224 32.2514 144.721 32.5186 145.308 32.7694C145.897 33.0201 146.58 33.2655 147.353 33.5055C148.652 33.8981 149.791 34.3397 150.772 34.8304C151.765 35.3212 152.594 35.8718 153.26 36.4825C153.924 37.0932 154.427 37.7856 154.765 38.5599C155.102 39.3342 155.271 40.212 155.271 41.1934C155.271 42.2294 155.07 43.1564 154.667 43.9742C154.262 44.792 153.68 45.4845 152.916 46.0516C152.153 46.6186 151.241 47.0494 150.184 47.3439C149.126 47.6383 147.942 47.7855 146.634 47.7855C145.456 47.7855 144.295 47.6328 143.15 47.3274C142.004 47.0113 140.963 46.5368 140.024 45.9044C139.098 45.2719 138.356 44.465 137.8 43.4834C137.244 42.502 136.966 41.3407 136.966 39.9993H141.89C141.89 40.7409 142.004 41.3679 142.233 41.8805C142.462 42.393 142.784 42.8074 143.199 43.1236C143.623 43.4399 144.126 43.6689 144.704 43.8106C145.293 43.9524 145.936 44.0233 146.634 44.0233C147.485 44.0233 148.183 43.9033 148.728 43.6634C149.284 43.4236 149.693 43.0909 149.955 42.6656C150.228 42.2403 150.364 41.7606 150.364 41.2262Z" fill="white"/>
</g>
<g filter="url(#filter1_d_1_151)">
<path d="M37.1931 73.0522L34.6165 87.9375H31.6208L34.2075 73.0522H37.1931ZM41.6304 73.0522L41.2112 75.4547H29.4225L29.8417 73.0522H41.6304ZM52.3349 79.1147L51.9157 81.507H44.36L44.7791 79.1147H52.3349ZM46.732 73.0522L44.1451 87.9375H41.1494L43.7259 73.0522H46.732ZM55.5045 73.0522L52.9177 87.9375H49.9425L52.519 73.0522H55.5045ZM66.0558 85.5452L65.6366 87.9375H57.9375L58.3465 85.5452H66.0558ZM61.5059 73.0522L58.919 87.9375H55.9232L58.4999 73.0522H61.5059ZM66.1682 79.1147L65.7591 81.4456H59.0622L59.4713 79.1147H66.1682ZM68.2028 73.0522L67.7836 75.4547H60.0948L60.5242 73.0522H68.2028ZM83.4773 85.5452L83.058 87.9375H75.3591L75.7681 85.5452H83.4773ZM78.9275 73.0522L76.3406 87.9375H73.3449L75.9214 73.0522H78.9275ZM83.5898 79.1147L83.1807 81.4456H76.4838L76.8927 79.1147H83.5898ZM85.6244 73.0522L85.2052 75.4547H77.5164L77.9458 73.0522H85.6244ZM90.0205 73.0522L91.9222 78.2253L95.4497 73.0522H99.0077L93.5581 80.5664L96.6459 87.9375H93.3332L91.3701 82.6622L87.7609 87.9375H84.1516L89.7445 80.3006L86.7282 73.0522H90.0205ZM105.234 82.6419L101.379 82.6315L101.799 80.2394L105.336 80.2495C105.841 80.2495 106.304 80.1609 106.727 79.9838C107.149 79.7997 107.497 79.5339 107.77 79.1863C108.042 78.8386 108.216 78.4024 108.291 77.8777C108.359 77.4347 108.335 77.0359 108.22 76.6815C108.104 76.3271 107.899 76.041 107.606 75.8228C107.313 75.6048 106.935 75.4854 106.471 75.465L103.68 75.4547L101.512 87.9375H98.5166L101.093 73.0522L106.563 73.0625C107.511 73.0829 108.356 73.2874 109.099 73.6759C109.842 74.0576 110.414 74.6028 110.817 75.3116C111.226 76.0136 111.389 76.8621 111.307 77.8572C111.219 78.9409 110.881 79.8372 110.295 80.546C109.709 81.2548 108.969 81.783 108.076 82.1306C107.19 82.4714 106.243 82.6419 105.234 82.6419ZM122.175 85.5452L121.756 87.9375H114.057L114.466 85.5452H122.175ZM117.626 73.0522L115.039 87.9375H112.043L114.62 73.0522H117.626ZM122.288 79.1147L121.879 81.4456H115.182L115.591 79.1147H122.288ZM124.323 73.0522L123.903 75.4547H116.215L116.644 73.0522H124.323ZM126.469 73.0522L131.714 73.0625C132.621 73.0761 133.442 73.2432 134.179 73.5634C134.922 73.8837 135.497 74.3643 135.907 75.005C136.322 75.6455 136.496 76.46 136.428 77.4484C136.36 78.2594 136.162 78.9443 135.835 79.5032C135.515 80.0621 135.082 80.5358 134.536 80.9243C133.998 81.3127 133.378 81.6468 132.676 81.9262L131.633 82.427H126.786L127.195 80.0349L130.528 80.0552C131.026 80.0484 131.479 79.9531 131.888 79.769C132.297 79.585 132.635 79.3192 132.9 78.9717C133.173 78.6172 133.344 78.1878 133.412 77.6834C133.473 77.2404 133.442 76.8553 133.32 76.5282C133.204 76.2011 133.003 75.9455 132.716 75.7615C132.43 75.5774 132.065 75.4786 131.622 75.465L129.056 75.4547L126.889 87.9375H123.893L126.469 73.0522ZM132.042 87.9375L129.894 81.3026L132.911 81.282L135.232 87.7739V87.9375H132.042ZM143.104 73.0522L140.527 87.9375H137.532L140.118 73.0522H143.104ZM153.839 85.5452L153.42 87.9375H145.721L146.13 85.5452H153.839ZM149.29 73.0522L146.703 87.9375H143.707L146.284 73.0522H149.29ZM153.952 79.1147L153.543 81.4456H146.845L147.254 79.1147H153.952ZM155.986 73.0522L155.567 75.4547H147.878L148.308 73.0522H155.986ZM169.912 73.0522L167.326 87.9375H164.421L160.301 77.847L158.552 87.9375H155.556L158.133 73.0522H161.046L165.177 83.153L166.926 73.0522H169.912ZM179.482 83.0098L182.405 82.9689C182.276 84.0663 181.905 85.0068 181.291 85.7906C180.685 86.5676 179.921 87.1606 179 87.5694C178.08 87.9716 177.082 88.1624 176.004 88.142C175.01 88.1215 174.171 87.9103 173.49 87.5082C172.808 87.0992 172.273 86.554 171.885 85.8724C171.495 85.1908 171.24 84.4309 171.117 83.5926C170.996 82.7542 170.989 81.8955 171.097 81.0163L171.24 79.9838C171.377 79.0568 171.625 78.1605 171.987 77.295C172.355 76.4294 172.835 75.6592 173.429 74.9845C174.022 74.3097 174.723 73.7782 175.535 73.3896C176.346 73.0011 177.266 72.8171 178.295 72.8375C179.373 72.858 180.282 73.0898 181.026 73.5328C181.775 73.969 182.35 74.579 182.752 75.3627C183.161 76.1398 183.39 77.0496 183.438 78.0924L180.463 78.0822C180.47 77.53 180.402 77.0462 180.258 76.6304C180.122 76.2079 179.884 75.8807 179.543 75.649C179.202 75.4105 178.732 75.2809 178.132 75.2606C177.477 75.24 176.921 75.3696 176.465 75.649C176.009 75.9285 175.63 76.3032 175.33 76.7736C175.037 77.2439 174.805 77.7584 174.635 78.3173C174.472 78.8762 174.349 79.4249 174.266 79.9633L174.124 81.0265C174.069 81.4695 174.032 81.9603 174.011 82.4986C173.991 83.0303 174.035 83.538 174.143 84.0219C174.254 84.5059 174.465 84.908 174.779 85.2283C175.091 85.5418 175.559 85.7088 176.179 85.7293C176.792 85.7497 177.321 85.6543 177.763 85.443C178.213 85.2317 178.578 84.9182 178.858 84.5025C179.144 84.0867 179.352 83.5892 179.482 83.0098ZM194.153 85.5452L193.733 87.9375H186.034L186.443 85.5452H194.153ZM189.602 73.0522L187.016 87.9375H184.02L186.597 73.0522H189.602ZM194.265 79.1147L193.856 81.4456H187.16L187.569 79.1147H194.265ZM196.3 73.0522L195.88 75.4547H188.193L188.621 73.0522H196.3Z" fill="white"/>
</g>
<defs>
<filter id="filter0_d_1_151" x="8.59024" y="7.31476" width="166.681" height="64.4708" filterUnits="userSpaceOnUse" color-interpolation-filters="sRGB">
<feFlood flood-opacity="0" result="BackgroundImageFix"/>
<feColorMatrix in="SourceAlpha" type="matrix" values="0 0 0 0 0 0 0 0 0 0 0 0 0 0 0 0 0 0 127 0" result="hardAlpha"/>
<feOffset dy="4"/>
<feGaussianBlur stdDeviation="10"/>
<feComposite in2="hardAlpha" operator="out"/>
<feColorMatrix type="matrix" values="0 0 0 0 0 0 0 0 0 0 0 0 0 0 0 0 0 0 0.25 0"/>
<feBlend mode="normal" in2="BackgroundImageFix" result="effect1_dropShadow_1_151"/>
<feBlend mode="normal" in="SourceGraphic" in2="effect1_dropShadow_1_151" result="shape"/>
</filter>
<filter id="filter1_d_1_151" x="21.4225" y="72.836" width="182.878" height="47.3075" filterUnits="userSpaceOnUse" color-interpolation-filters="sRGB">
<feFlood flood-opacity="0" result="BackgroundImageFix"/>
<feColorMatrix in="SourceAlpha" type="matrix" values="0 0 0 0 0 0 0 0 0 0 0 0 0 0 0 0 0 0 127 0" result="hardAlpha"/>
<feOffset dy="24"/>
<feGaussianBlur stdDeviation="4"/>
<feComposite in2="hardAlpha" operator="out"/>
<feColorMatrix type="matrix" values="0 0 0 0 0 0 0 0 0 0 0 0 0 0 0 0 0 0 0.25 0"/>
<feBlend mode="normal" in2="BackgroundImageFix" result="effect1_dropShadow_1_151"/>
<feBlend mode="normal" in="SourceGraphic" in2="effect1_dropShadow_1_151" result="shape"/>
</filter>
</defs>
</svg>
